<svg xmlns:dc="http://purl.org/dc/elements/1.1/" xmlns:cc="http://creativecommons.org/ns#" xmlns:rdf="http://www.w3.org/1999/02/22-rdf-syntax-ns#" xmlns:svg="http://www.w3.org/2000/svg" xmlns="http://www.w3.org/2000/svg" xmlns:sodipodi="http://sodipodi.sourceforge.net/DTD/sodipodi-0.dtd" xmlns:inkscape="http://www.inkscape.org/namespaces/inkscape" viewBox="0 0 16.933333 21.1666675" version="1.1" x="0px" y="0px"><g transform="translate(0,-280.06665)"><path style="color:#000000;font-style:normal;font-variant:normal;font-weight:normal;font-stretch:normal;font-size:medium;line-height:normal;font-family:sans-serif;font-variant-ligatures:normal;font-variant-position:normal;font-variant-caps:normal;font-variant-numeric:normal;font-variant-alternates:normal;font-feature-settings:normal;text-indent:0;text-align:start;text-decoration:none;text-decoration-line:none;text-decoration-style:solid;text-decoration-color:#000000;letter-spacing:normal;word-spacing:normal;text-transform:none;writing-mode:lr-tb;direction:ltr;text-orientation:mixed;dominant-baseline:auto;baseline-shift:baseline;text-anchor:start;white-space:normal;shape-padding:0;clip-rule:nonzero;display:inline;overflow:visible;visibility:visible;opacity:1;isolation:auto;mix-blend-mode:normal;color-interpolation:sRGB;color-interpolation-filters:linearRGB;solid-color:#000000;solid-opacity:1;vector-effect:none;fill:#000000;fill-opacity:1;fill-rule:nonzero;stroke:none;stroke-width:0.5291667;stroke-linecap:butt;stroke-linejoin:round;stroke-miterlimit:4;stroke-dasharray:none;stroke-dashoffset:0;stroke-opacity:1;paint-order:normal;color-rendering:auto;image-rendering:auto;shape-rendering:auto;text-rendering:auto;enable-background:accumulate" d="m 4.497911,282.4479 c -0.9296983,0 -1.7014694,0.69256 -1.8308956,1.5875 H 2.3812442 c -0.1492488,-0.002 -0.2673323,0.1202 -0.2645833,0.26769 0.00299,0.14751 0.1190731,0.26325 0.2645833,0.26148 0.1321435,-7e-5 0.3679931,3e-5 0.5291667,0 -1.06e-5,0.87363 0.7138909,1.5875 1.5875001,1.5875 h 1.3229167 c 0.1454097,-5.3e-4 0.2640727,-0.11918 0.2645833,-0.26458 v -1.32292 c 0.1611921,10e-6 0.397002,0 0.5291667,0 0.17644,0 0.2645833,-0.13226 0.2645833,-0.26458 0,-0.13233 -0.088133,-0.26459 -0.2645833,-0.26459 H 6.3288065 C 6.1993803,283.14046 5.4276171,282.4479 4.497911,282.4479 Z m 0,0.52917 c 0.6300999,0 1.2117943,0.4709 1.3472054,1.05833 -0.8815996,0 -1.7632019,0 -2.6448015,0 0.1353502,-0.58743 0.6675067,-1.05833 1.2975961,-1.05833 z m -1.0583334,1.5875 c 0.6979391,5e-5 1.4991874,-6e-5 2.1166667,0 v 1.05833 H 4.497911 c -0.5876291,0 -1.0583334,-0.47069 -1.0583334,-1.05833 z"/><path style="color:#000000;font-style:normal;font-variant:normal;font-weight:normal;font-stretch:normal;font-size:medium;line-height:normal;font-family:sans-serif;font-variant-ligatures:normal;font-variant-position:normal;font-variant-caps:normal;font-variant-numeric:normal;font-variant-alternates:normal;font-feature-settings:normal;text-indent:0;text-align:start;text-decoration:none;text-decoration-line:none;text-decoration-style:solid;text-decoration-color:#000000;letter-spacing:normal;word-spacing:normal;text-transform:none;writing-mode:lr-tb;direction:ltr;text-orientation:mixed;dominant-baseline:auto;baseline-shift:baseline;text-anchor:start;white-space:normal;shape-padding:0;clip-rule:nonzero;display:inline;overflow:visible;visibility:visible;opacity:1;isolation:auto;mix-blend-mode:normal;color-interpolation:sRGB;color-interpolation-filters:linearRGB;solid-color:#000000;solid-opacity:1;vector-effect:none;fill:#000000;fill-opacity:1;fill-rule:nonzero;stroke:none;stroke-width:0.5291667;stroke-linecap:butt;stroke-linejoin:round;stroke-miterlimit:4;stroke-dasharray:none;stroke-dashoffset:0;stroke-opacity:1;paint-order:normal;color-rendering:auto;image-rendering:auto;shape-rendering:auto;text-rendering:auto;enable-background:accumulate" d="m 1.8520776,286.68124 c -0.4351708,0 -0.7937501,0.35857 -0.7937501,0.79375 v 4.23333 c 0,0.43517 0.3585793,0.79375 0.7937501,0.79375 h 0.00106 c 0.6821752,1.26162 1.9632057,2.11667 3.4385489,2.11667 2.4487506,0 3.9242789,-2.1932 3.9687501,-3.96875 0,-0.16004 -0.1273731,-0.26459 -0.2645833,-0.26459 -0.135771,0 -0.2645834,0.11698 -0.2645834,0.26459 -0.1087676,1.75248 -1.3363496,3.13511 -2.9104167,3.39255 v -3.75791 l 1.2050951,0.60152 c 0.057076,0.0286 0.091218,0.0284 0.1177978,0.0284 0.022886,0 0.086704,-1.7e-4 0.1576123,-0.0522 l 2.1171853,-1.5875 c 0.1089686,-0.0813 0.1064524,-0.18588 0.1064524,-0.21238 0,-0.14553 -0.1190545,-0.26459 -0.2645833,-0.26459 0,0 -0.025559,7e-5 -0.033073,0.002 l -1.9626713,0.24391 c -0.2070285,-0.23895 -0.5141463,-0.75055 -0.8614463,-1.25574 -0.1869387,-0.27191 -0.3845507,-0.5334 -0.6035808,-0.73845 -0.21903,-0.2051 -0.4712308,-0.3685 -0.7725622,-0.3685 h -0.79375 c -0.2711582,0 -0.4902835,0.15494 -0.653706,0.37362 -0.141232,-0.22299 -0.3883025,-0.37362 -0.6692107,-0.37362 z m 0,0.52916 h 1.0583333 c 0.1511591,0 0.2645834,0.11343 0.2645834,0.26459 v 1.05833 3.175 c 0,0.15117 -0.1134243,0.26458 -0.2645834,0.26458 H 1.8520776 c -0.1511591,0 -0.2645834,-0.11341 -0.2645834,-0.26458 v -4.23333 c 0,-0.15116 0.1134243,-0.26459 0.2645834,-0.26459 z m 2.38125,0 c 0.2764208,-8e-5 0.5575195,-5.3e-4 0.79375,0 0.095599,0 0.2417737,0.0676 0.4113451,0.22635 0.1695794,0.15875 0.3522954,0.39334 0.5291667,0.6506 0.3537294,0.51451 0.6611038,1.10037 0.9880521,1.4273 0.029001,0.0288 0.073512,0.077 0.1881029,0.077 l 0.032557,-0.003 1.129128,-0.14056 -1.1895905,0.89245 -1.4412543,-0.72037 c -0.056502,-0.0282 -0.09189,-0.0284 -0.1183402,-0.0284 -0.1455208,2.2e-4 -0.2645833,0.11902 -0.2645833,0.26459 v 4.23333 c -0.5734553,0 -1.1133985,-0.14909 -1.588016,-0.41393 v -1.96422 c 2.6e-6,-0.001 5.292e-4,-0.002 5.292e-4,-0.003 v -3.17551 c 2.11e-5,-0.40423 0.085317,-0.76601 0.2046393,-1.00459 0.1192874,-0.2386 0.2466552,-0.31782 0.3245141,-0.31782 z m -1.0583333,5.24206 v 0.85628 C 2.9030317,293.08031 2.6642241,292.8086 2.4665115,292.50207 h 0.4438994 c 0.093078,0 0.1812714,-0.0195 0.2645834,-0.0496 z"/><path style="display:inline;opacity:1;fill:#000000;fill-opacity:1;stroke:none;stroke-width:0.52916676;stroke-linecap:butt;stroke-linejoin:round;stroke-miterlimit:4;stroke-dasharray:none;stroke-dashoffset:0;stroke-opacity:1;paint-order:normal" d="m 10.58333,288.79789 a 0.26458335,0.26458335 0 0 1 -0.26459,0.26459 0.26458335,0.26458335 0 0 1 -0.26458,-0.26459 0.26458335,0.26458335 0 0 1 0.26458,-0.26458 0.26458335,0.26458335 0 0 1 0.26459,0.26458 z"/><path style="color:#000000;font-style:normal;font-variant:normal;font-weight:normal;font-stretch:normal;font-size:medium;line-height:normal;font-family:sans-serif;font-variant-ligatures:normal;font-variant-position:normal;font-variant-caps:normal;font-variant-numeric:normal;font-variant-alternates:normal;font-feature-settings:normal;text-indent:0;text-align:start;text-decoration:none;text-decoration-line:none;text-decoration-style:solid;text-decoration-color:#000000;letter-spacing:normal;word-spacing:normal;text-transform:none;writing-mode:lr-tb;direction:ltr;text-orientation:mixed;dominant-baseline:auto;baseline-shift:baseline;text-anchor:start;white-space:normal;shape-padding:0;clip-rule:nonzero;display:inline;overflow:visible;visibility:visible;opacity:1;isolation:auto;mix-blend-mode:normal;color-interpolation:sRGB;color-interpolation-filters:linearRGB;solid-color:#000000;solid-opacity:1;vector-effect:none;fill:#000000;fill-opacity:1;fill-rule:nonzero;stroke:none;stroke-width:0.5291667;stroke-linecap:round;stroke-linejoin:round;stroke-miterlimit:4;stroke-dasharray:none;stroke-dashoffset:0;stroke-opacity:1;color-rendering:auto;image-rendering:auto;shape-rendering:auto;text-rendering:auto;enable-background:accumulate" d="m 13.57109,283.58323 -4.23242,4.23438 c -0.0783,0.0783 -0.0783,0.16004 -0.0783,0.18654 3e-5,0.14552 0.11907,0.26461 0.26459,0.26458 0.0265,0 0.10864,0 0.18672,-0.0781 l 4.04687,-4.04492 0.3418,0.3418 c 0.0771,0.0771 0.16065,0.0771 0.18715,0.0771 0.14552,-2e-5 0.26459,-0.11907 0.26458,-0.26459 0,-0.0265 0,-0.11074 -0.0767,-0.18747 l -0.5293,-0.5293 c -0.0573,-0.0577 -0.11879,-0.077 -0.18772,-0.077 -0.0721,0 -0.14522,0.0347 -0.18724,0.077 z"/><path style="display:inline;opacity:1;fill:#000000;fill-opacity:1;stroke:none;stroke-width:0.52916676;stroke-linecap:butt;stroke-linejoin:round;stroke-miterlimit:4;stroke-dasharray:none;stroke-dashoffset:0;stroke-opacity:1;paint-order:normal" d="m 14.2875,286.41665 a 0.26458335,0.26458335 0 0 1 -0.26459,0.26459 0.26458335,0.26458335 0 0 1 -0.26458,-0.26459 0.26458335,0.26458335 0 0 1 0.26458,-0.26458 0.26458335,0.26458335 0 0 1 0.26459,0.26458 z"/><path style="display:inline;opacity:1;fill:#000000;fill-opacity:1;stroke:none;stroke-width:0.52916676;stroke-linecap:butt;stroke-linejoin:round;stroke-miterlimit:4;stroke-dasharray:none;stroke-dashoffset:0;stroke-opacity:1;paint-order:normal" d="m 15.34583,286.41664 a 0.26458335,0.26458335 0 0 1 -0.26458,0.26459 0.26458335,0.26458335 0 0 1 -0.26459,-0.26459 0.26458335,0.26458335 0 0 1 0.26459,-0.26458 0.26458335,0.26458335 0 0 1 0.26458,0.26458 z"/><path style="display:inline;opacity:1;fill:#000000;fill-opacity:1;stroke:none;stroke-width:0.52916676;stroke-linecap:butt;stroke-linejoin:round;stroke-miterlimit:4;stroke-dasharray:none;stroke-dashoffset:0;stroke-opacity:1;paint-order:normal" d="m 14.81666,287.47498 a 0.26458335,0.26458335 0 0 1 -0.26458,0.26458 0.26458335,0.26458335 0 0 1 -0.26458,-0.26458 0.26458335,0.26458335 0 0 1 0.26458,-0.26459 0.26458335,0.26458335 0 0 1 0.26458,0.26459 z"/><path style="display:inline;opacity:1;fill:#000000;fill-opacity:1;stroke:none;stroke-width:0.52916676;stroke-linecap:butt;stroke-linejoin:round;stroke-miterlimit:4;stroke-dasharray:none;stroke-dashoffset:0;stroke-opacity:1;paint-order:normal" d="m 13.75833,287.47498 a 0.26458335,0.26458335 0 0 1 -0.26458,0.26458 0.26458335,0.26458335 0 0 1 -0.26459,-0.26458 0.26458335,0.26458335 0 0 1 0.26459,-0.26459 0.26458335,0.26458335 0 0 1 0.26458,0.26459 z"/><path d="m 15.875,287.47499 a 0.26458335,0.26458335 0 0 1 -0.26459,0.26458 0.26458335,0.26458335 0 0 1 -0.26458,-0.26458 0.26458335,0.26458335 0 0 1 0.26458,-0.26459 0.26458335,0.26458335 0 0 1 0.26459,0.26459 z" style="display:inline;opacity:1;fill:#000000;fill-opacity:1;stroke:none;stroke-width:0.52916676;stroke-linecap:butt;stroke-linejoin:round;stroke-miterlimit:4;stroke-dasharray:none;stroke-dashoffset:0;stroke-opacity:1;paint-order:normal"/><path style="display:inline;opacity:1;fill:#000000;fill-opacity:1;stroke:none;stroke-width:0.52916676;stroke-linecap:butt;stroke-linejoin:round;stroke-miterlimit:4;stroke-dasharray:none;stroke-dashoffset:0;stroke-opacity:1;paint-order:normal" d="m 14.81666,285.35832 a 0.26458335,0.26458335 0 0 1 -0.26458,0.26458 0.26458335,0.26458335 0 0 1 -0.26458,-0.26458 0.26458335,0.26458335 0 0 1 0.26458,-0.26459 0.26458335,0.26458335 0 0 1 0.26458,0.26459 z"/></g></svg>