<svg xmlns="http://www.w3.org/2000/svg" id="Layer_1" data-name="Layer 1" viewBox="0 0 1080 1080"><defs><style>.cls-1{stroke-width:0}</style></defs><path d="m274.69,225.16s-.02,0-.02,0c0,0,.02,0,.03,0,0,0,0,0,0,0Z" class="cls-1"/><path d="m348.07,361c.06,1.82,5.17,2.13,6.32,2.13h28.53c.41,0,2.24.05,2.31-.7.64-6.76.33-13.71-.37-20.45-1.35-12.9-4.77-26.31-12.55-36.91-4.67-6.36-10.93-11.34-18.17-14.46-.89-.79-3.07-1.26-4.96-1.37-.19-.01-.37-.02-.56-.02-1.52-.03-2.72.2-2.71.72.63,20.72,1.26,41.44,1.88,62.16.09,2.97.18,5.93.27,8.9Zm28.82-7c-.01,2.1-.07,4.21-.24,6.3h-20.01c-.61-20.01-1.21-40.03-1.82-60.04-.05-1.69-.1-3.37-.15-5.06,17.69,12.5,22.35,38.23,22.22,58.79Z" class="cls-1"/><path d="m375.4,376.33c-.91-.31-1.82-.55-2.73-.7-5.97-.95-11.76,2.72-13.13,8.67-.12.52-.18,1.06-.24,1.61-.87,2.58-.65,5.41-.65,8.12v12.59c0,3.23-.08,6.46,0,9.69.16,6.81,5.99,11.43,12.48,11.68.19.02.37.03.55.02,0,0,0,0,0,0,1.4.44,2.83.68,4.23.68,6.03-.18,10.94-4.3,11.53-10.31.17-.49.33-1,.44-1.54.53-2.56.24-5.48.24-8.08,0-6.97.17-13.96,0-20.93-.19-7.78-6.18-11.38-12.72-11.51Zm.59,5.95c2.03,1.6,3.29,3.92,3.59,6.48.23,1.94.07,3.98.07,5.93v20.79c0,.26,0,.52-.02.77-1.19,3.34-4,5.96-7.65,6.5-2.99-1.58-4.77-5.3-4.85-8.59-.05-1.97,0-3.96,0-5.93v-19.54c0-.27.02-.56.04-.84,1.06-2.97,3.41-5.35,6.65-6.22.31-.08.62-.11.93-.16.47.26.9.55,1.24.82Z" class="cls-1"/><path d="m375.59,490.81c-1.79,2.76-1.79,5.76-1.79,8.89v11.41c0,2.83-.15,5.71.02,8.53.39,6.49,6.14,10.37,12.19,10.61.22.02.44.03.61.02.88,0,2.04-.05,3.14-.25,5.27-.7,10.7-2.91,12.81-8.08,1.08-2.65.87-5.47.87-8.27,0-6.24.37-12.6-.02-18.84-.84-13.53-21.73-13.45-27.83-4.04Zm11.09-3.74s-.08.03-.07,0c0,0,.03,0,.07,0Zm8.12,13.41v9.59c0,2.82.02,5.65,0,8.47-.01,1.61-.2,3.14-.9,4.61-.56,1.18-1.33,2.29-2.31,3.15-.42.37-.92.63-1.35.98-.06.05-.07.05-.12.09-4.31-.36-7.42-5.2-7.66-9.14-.11-1.74-.02-3.51-.02-5.25,0-5.72-.05-11.45,0-17.18.01-1.17.1-2.31.47-3.43.35-1.06.91-2.07,1.59-2.95.34-.45.72-.87,1.14-1.24.4-.35,1.19-.67,1.58-1.04.2.03.34.06.23.03,1.07.29,2.04.69,2.96,1.32,1.93,1.32,3.33,3.23,3.97,5.48.59,2.08.4,4.37.4,6.51Z" class="cls-1"/><path d="m390.73,472.09s.04-.02-.02,0c0,0,.01,0,.02,0Z" class="cls-1"/><path d="m390.52,472.12s.08-.03.12-.04c-.09,0-.2.03-.28.05.06,0,.11,0,.16,0Z" class="cls-1"/><polygon points="390.71 472.08 390.71 472.08 390.71 472.08 390.71 472.08" class="cls-1"/><path d="m390.61,472.12s.06,0,.08,0c.01,0,.03-.02.04-.02,0,0,0,0-.01,0-.02,0-.07.02-.12.03Z" class="cls-1"/><path d="m374,466.5c1.02,6.12,6.89,9.97,12.84,9.97.29,0,.6-.01.91-.04,6.04-.33,12.35-3.12,14.8-9,1.91-4.59.47-10.18-3.43-13.27-9.03-7.14-27.28-.54-25.13,12.34Zm16.25,5.68s.03,0,.06,0c-.05,0-.06,0-.06,0Zm-3.64-16.64s.01,0,.02,0c-.08.03-.19.08-.33.15.04-.06.17-.11.31-.14Zm-4.05,5.87c.4-2.03,1.16-3.31,2.47-4.76.05-.05.07-.08.1-.11.04-.02.07-.05.12-.09.18-.14.37-.28.54-.42.06-.05.16-.12.24-.17.12-.07.24-.13.36-.2.04-.02.08-.04.12-.06.07-.03.11-.05.15-.07.04,0,.06,0,.11-.02.02,0,.02,0,.04,0,.07,0,.15-.01.22-.02.01,0,.01,0,.03,0,.09,0,.19,0,.22,0,.1,0,.28.02.38.03.13.02.26.04.39.07.18.04.36.08.53.13.1.03.26.08.32.11.47.2.93.4,1.37.65,2.86,1.61,4.94,5.46,4.53,9.06-.12,1.07-.44,2.12-.89,3.09-.4.85-.94,1.53-1.69,2.37-.03.03-.04.05-.06.07-.02.01-.03.02-.05.04-.25.21-.5.39-.75.59-.1.08-.13.11-.17.13-.09.06-.18.11-.28.17-.05.01-.12.04-.21.07-.02,0-.04.01-.06.02.03,0,.05,0,.07,0,.05-.02.09-.03.14-.05-.04.02-.07.04-.11.06.02,0,.04,0,.05.02,0,0-.04,0-.09,0-.09.04-.17.07-.21.05,0,0,.05-.02.11-.04,0,0,0,0,.01,0,0,0,0,0,0,0,.03-.01.06-.02.1-.04-.03,0-.1.02-.17.04,0,0-.01,0-.02,0-.01,0-.03,0-.04.01,0,0,0,0,0,0-.07.02-.12.02-.15.03-.02,0-.04,0-.06,0,.02,0,.05-.02.1-.03-.12,0-.22.01-.31.02-.22-.02-.43-.03-.43-.02-.18-.03-.37-.06-.55-.1.02,0-.27-.07-.43-.11-.16-.06-.43-.15-.41-.14-.21-.09-.43-.18-.63-.28-.21-.1-.41-.21-.61-.32.03.01-.69-.43-.39-.22-1.5-1.01-2.75-2.52-3.43-4.2-.67-1.68-.94-3.56-.59-5.34Z" class="cls-1"/><path d="m393.03,560.61c-2.53-.85-5.56-.93-8.15-.28-2.04.51-3.85,1.45-5.26,3.02-2.14,2.37-2.39,6.09-.69,8.78,2.54,4.01,8.05,4.96,12.4,4.28,2.4-.37,4.58-1.35,6.24-3.14,1.2-1.3,1.86-3.13,1.89-4.88-.02-1.56-.52-3.2-1.48-4.44-1.27-1.66-2.99-2.67-4.95-3.33Zm-2.59,9.33c-.31.8-.77,1.52-1.35,2.15-.18.16-.37.32-.57.46-.2-.15-.37-.33-.55-.5-.56-.66-.97-1.41-1.24-2.23-.24-1.07-.21-2.16.08-3.22.31-.8.77-1.52,1.35-2.15.18-.16.37-.32.57-.46.2.15.37.33.55.5.56.67.98,1.41,1.25,2.24.1.47.17.95.18,1.44,0,.61-.11,1.2-.27,1.78Z" class="cls-1"/><path d="m370.03,530.09c-2.79-1.92-6.38-2.91-9.75-3.05-2.97-.12-6.04.29-8.63,1.85-4.41,2.66-6.61,7.63-5.34,12.67,1.64,6.5,8.5,9.47,14.7,9.91.13.01.25.02.38.03.02,0,.04,0,.06,0,.43.03.84.04,1.22.03.14,0,.3-.01.48-.04,5.24-.23,10.2-3.08,11.88-8.26,1.65-5.05-.78-10.24-5-13.15Zm-11,17.89s0,0,0,0c-.06,0-.05,0,0,.01-.02,0-.04,0-.06,0,0,0,.03-.01.06-.01Zm.36.05s-.05,0-.07,0c0,0,0,0,0,0h.06s.02,0,.02,0Zm-.08,0s.01,0,.02,0c0,0,0,0,0,0,0,0-.02,0-.02,0Zm-.03-.01s0,0,0,0c.01,0,.02,0,.03,0,0,0-.01,0-.02,0Zm-.13-.02s0,0-.01,0c0,0,.01,0,.02,0,0,0,0,0,0,0Zm7.54-7.3c-.44,2.1-1.52,3.92-3.13,5.34-.81.71-1.51,1.15-2.53,1.56-.17.07-.35.13-.52.19-.04.01-.07.02-.1.03-.18.04-.35.08-.53.12-.17.03-.34.06-.52.09h0c.49-.08.19-.06-.14-.03-.07-.03-.14-.07-.22-.09-.09-.05-.21-.11-.27-.15-.14-.09-.28-.18-.43-.27-.06-.05-.35-.26-.41-.32-1.43-1.19-2.38-2.67-2.95-4.51-1.12-3.61.16-7.66,2.97-10.12.71-.63,1.29-1.01,2.15-1.39.21-.09.42-.18.64-.26-.03.01.28-.09.44-.14.17-.04.49-.11.45-.1.12-.02.27-.04.38-.06.04,0,.08,0,.12,0,.06,0,.12-.01.19-.02,0,0,.01,0,.02.01.02,0,.05,0,.07,0,.11.02.12.01.07,0,.08,0,.17,0,.24-.02-.09.02-.17.03-.24.04-.04-.02-.05-.01-.04,0-.01,0-.04,0-.05,0,.07.04.13.07.18.09.03.02.05.03.09.06.18.12.36.22.54.33.06.05.39.29.42.32.18.15.34.3.51.46.28.27.63.63.83.88.54.69,1.05,1.63,1.38,2.51.67,1.74.78,3.62.39,5.44Z" class="cls-1"/><path d="m362.35,530.59s-.04-.02-.05-.03c-.07,0-.14,0-.21,0-.27.04-.31.11.27.02Z" class="cls-1"/><path d="m425.72,567.5c.27,0,.54-.03.81-.09,6.2-.5,12.28-4.63,14.89-10.27,1.29-2.78,1.12-5.73,1.12-8.69,0-6.19.15-12.39,0-18.57-.14-5.83-4.41-10.53-10.18-11.27-6.19-.8-12.85,3.25-16.12,8.34-1.93,3-2.16,6.12-2.16,9.53v11.29c0,2.78-.07,5.57,0,8.35.16,6.34,5.28,11.37,11.65,11.37Zm-4.18-37.12c.01-2.16.47-5.41,2.63-5.91,4.32-1,8.7,2.06,10.27,5.99.85,2.12.63,4.53.63,6.78v9.49c0,2.92.02,5.83,0,8.75,0,1.38-.1,2.7-.66,4-.81,1.88-1.49,2.17-3.52,2.23-4.66,0-8.76-3.85-9.28-8.44-.2-1.8-.07-3.68-.07-5.48,0-5.8-.04-11.6,0-17.4Z" class="cls-1"/><path d="m421.21,501.01c0,.05,0,.1,0,.15,0,.02,0,.02,0,.04,0,.07,0,.13,0,.21.01-.15.02-.39,0-.4Z" class="cls-1"/><path d="m421.57,502.76c.07.15.14.3.16.41,0,0,0,0,0,.01.01-.23-.1-.4-.16-.42Z" class="cls-1"/><path d="m429.02,601.06s-.05,0-.07.01c-.02,0-.03.01-.05.02.15-.02.25-.03.31-.05-.06,0-.13,0-.19.02Z" class="cls-1"/><path d="m436.88,599.11c-1.36-1.97-3.43-3.36-5.62-4.25-3.63-1.47-8.44-.9-11.12,2.14-1.25,1.42-2.15,3.08-2.34,5.01-.19,1.94.19,3.99,1.18,5.69,2.36,4.05,7.12,6.87,11.9,6.15,2.06-.31,4.12-1.18,5.54-2.76,1.42-1.59,2.4-3.53,2.43-5.7-.02-1.15-.09-2.12-.44-3.22-.36-1.12-.85-2.08-1.52-3.06Zm-8.27,7.45c-.29.14-.58.28-.89.38.07,0,.14-.02.23-.03-.09,0-.18.03-.27.05-.01,0-.03.01-.04.02-.21.06-.42.05-.22.01-.11.01-.22.02-.33.03-.05,0-.11,0-.16-.02-.02,0-.04,0-.07-.01-.05-.02-.1-.03-.16-.05-.09-.09-.2-.19-.28-.26-.02-.03-.04-.06-.06-.09-.06-.11-.13-.25-.16-.32-.01-.03-.03-.06-.04-.1-.02-.17-.13-.47-.15-.58-.02-.15-.03-.29-.04-.44.02-.49.09-.97.22-1.44.2-.48.46-.93.76-1.35.33-.33.68-.63,1.07-.89.29-.14.58-.28.89-.38-.07,0-.14.02-.23.03.09,0,.18-.03.27-.05.01,0,.03-.01.04-.02.21-.06.42-.05.22-.01.11-.01.22-.02.33-.03.05,0,.11,0,.16.02.02,0,.04,0,.07.01.05.02.11.03.16.05.09.09.2.19.28.26.02.03.04.06.06.09.06.11.13.25.16.32.01.03.03.06.04.1.02.17.13.47.15.58.03.16.03.33.05.49-.03.47-.1.92-.22,1.37-.2.48-.46.94-.77,1.36-.33.33-.68.63-1.07.89Z" class="cls-1"/><path d="m427.6,606.97s.05,0,.07-.01c.02,0,.03-.01.05-.02-.15.02-.25.03-.31.05.06,0,.13,0,.19-.02Z" class="cls-1"/><path d="m391.58,730.37c2.23-.34,4.35-1.2,5.91-2.88,1.2-1.3,1.91-3.11,1.94-4.87-.05-3.82-2.75-6.75-6.24-8.02-4.32-1.57-10.17-1.59-13.48,2.09-2.13,2.36-2.5,6.09-.79,8.79,2.57,4.05,8.11,5.59,12.67,4.9Zm-3.89-3.92c.34-.21.25-.09,0,0h0Zm-.28.07s-.01,0-.02,0c.54-.18.3-.06.02,0Zm-.03,0s0,0,0,0c0,0,0,0,0,0,0,0,0,0,0,0Zm-.08.03s.03,0,.05,0c-.07.02-.15.03-.22.06.07-.02.11-.04.16-.05Zm2.26-8.91c-.34.21-.25.09,0,0h0Zm.28-.07s.01,0,.02,0c-.54.18-.3.06-.02,0Zm.03,0s0,0,0,0c0,0,0,0,0,0,0,0,0,0,0,0Zm.08-.03s-.03,0-.05,0c.07-.02.15-.03.22-.06-.07.02-.11.04-.16.05Zm-2.97,2.68c.39-.76.91-1.42,1.55-1.98.21-.15.42-.3.64-.42.19.18.35.38.52.58.48.72.81,1.49.99,2.34.03.25.06.5.06.75-.01.84-.19,1.65-.5,2.43-.39.74-.9,1.39-1.52,1.94-.21.15-.42.3-.64.42-.19-.18-.35-.38-.52-.58-.48-.72-.81-1.49-.99-2.34-.11-1.07.03-2.13.42-3.14Z" class="cls-1"/><path d="m374.75,751.73c0-2.77.22-5.58-.72-8.24-2.05-5.81-8.79-11.19-14.94-11.76-5.34-.5-10.43,2.67-11.91,7.92-.71,2.52-.45,5.31-.45,7.89v11.8c0,3.13-.34,6.51.72,9.51,2.22,6.29,9.67,11.83,16.37,11.83,5.58-.16,10.23-4.28,10.87-9.87.28-2.4.07-4.91.07-7.32v-11.76Zm-8.38-13.75s.1.02.14.02c.44,0,.2.58-.14-.02Zm1.35,26.92c-.14,5.57-4.54,9.81-10.06,9.96-.86,0-1.76-.47-2.56-.51.04.07.08.15.13.26-.04-.1-.11-.18-.19-.27-.03,0-.06-.01-.08,0-.33,0-.27-.33-.08-.23,0-.01-.02-.02-.02-.03-.58-1.64-1.08-2.93-1.11-4.7-.04-2.22,0-4.44,0-6.66,0-5.09-.13-10.19,0-15.28.12-4.77,3.53-8.99,8.31-9.8.99-.17,1.97-.19,2.97-.03.33.05.94.32,1.33.38.67,1.62,1.32,2.87,1.37,4.74.13,5.21,0,10.45,0,15.66,0,2.17.05,4.35,0,6.52Z" class="cls-1"/><path d="m354.88,774.1c.04.09.09.16.16.24.02,0,.04,0,.06,0-.08-.14-.15-.21-.22-.24Z" class="cls-1"/><path d="m366.89,713.2s0-.01,0-.01c0-.03,0-.05,0-.1,0,.05,0,.08,0,.12Z" class="cls-1"/><path d="m364.43,707.05s-.05-.05-.07-.07c-.02-.02-.03-.02-.05-.04-.06-.04-.12-.08-.2-.12.07.08.22.22.32.23Z" class="cls-1"/><path d="m358.16,719.1s.02.01.03.02c.12.03.3.1.43.16-.02-.06-.25-.21-.46-.18Z" class="cls-1"/><path d="m360.9,726.9c.26,0,.52-.02.79-.06,5.88-.35,11.12-3.69,13.15-9.41,1.93-5.42-.17-11.79-4.63-15.32-5-3.95-12.01-4.76-17.55-1.43-5.16,3.09-7.59,8.94-6.37,14.78,1.38,6.58,7.98,11.44,14.6,11.44Zm-4.88-9.44c.11.12.22.25.33.37-.15-.13-.32-.28-.33-.37Zm5.81,1.91c.08-.02.12-.03.18-.05-.09.03-.16.06-.18.05Zm-7.06-8c.11-.46.28-.88.43-1.33.01-.04.01-.05.02-.08.01-.02.02-.02.03-.05.12-.2.22-.4.34-.6.24-.39.52-.75.79-1.12.03-.03.05-.08.08-.12.14-.16.34-.32.49-.45.36-.32.81-.56,1.17-.88,0,0,0,0,0,0,.21-.1.41-.21.62-.3.21-.09.43-.17.64-.26.02,0,.02,0,.04-.02.47-.1.94-.19,1.42-.27,0,0,0,0,.02,0,.02,0,.02,0,.04,0,.15,0,.29,0,.44.01.22,0,.44.03.66.05.38.11.79.25,1.17.33.21.11.42.21.62.32.02.01.17.11.32.21-.07-.08-.04-.09.2.12.1.06.18.11.18.11-.01.01-.04.01-.06,0,.28.26.57.55.86.8.13.19.28.36.4.55.13.19.24.39.37.58.03.05.05.07.07.09.01.04.02.06.04.12.17.43.35.86.48,1.3.03.12.06.24.09.36.02.1.05.26.07.35.05.42.08.84.08,1.26,0,.22,0,.48,0,.7,0,0,0,.02,0,.03,0,.04,0,.08,0,.1,0,.31,0,.41,0-.08-.01.05-.02.11-.04.2-.09.51-.22,1.01-.39,1.5-.09.26-.21.52-.3.78.29-.84.04-.1-.08.11-.27.48-.58.94-.92,1.37-.03.04-.08.11-.12.18-.14.19-.38.36-.54.5-.23.2-.62.6-.97.82-.04,0-.11.02-.2.06-.34.16-.66.33-1,.47-.04.02-.17.08-.29.12-.01,0-.02,0-.03,0-.18.05-.37.09-.55.12-.19.04-.37.07-.56.09-.11.02-.22.02-.33.04,0,0,0,0-.01,0-.39,0-.77-.04-1.16-.06-.22-.06-.44-.11-.65-.17-.03,0-.08-.03-.13-.05.01.04-.08.04-.34-.1-.01,0-.05-.03-.09-.05-.04,0-.08-.02-.1,0,.02,0,.04,0,.06,0-.25-.14-.77-.45-1.03-.6-.04-.03-.09-.07-.13-.1-.14-.12-.28-.24-.41-.36-.04-.04-.14-.12-.25-.21-.09-.1-.17-.21-.25-.32-.24-.35-.48-.83-.77-1.14,0,0,0,0,0,0-.1-.24-.21-.48-.3-.73-.13-.35-.22-.7-.31-1.06-.03-.14-.07-.37-.08-.46-.03-.24-.04-.48-.05-.72-.02-.39.02-.78.02-1.17,0,0,0,0,0-.01,0,0,0-.01,0-.02.06-.28.1-.56.17-.83Z" class="cls-1"/><path d="m360.7,812.88s-.03.02-.05.03c.09-.03.16-.06.21-.08,0,0,0,0,.01,0,0,0-.03,0-.04.01-.04.02-.08.03-.13.05Z" class="cls-1"/><path d="m360.93,812.79s.02,0,.04-.02c0,0,0,0,0,0-.02,0-.04.01-.05.02,0,0,.01,0,.01,0Z" class="cls-1"/><path d="m360.53,821.57s-.02,0-.04.02c0,0,0,0,0,0,.02,0,.04-.01.05-.02,0,0-.01,0-.01,0Z" class="cls-1"/><path d="m360.38,813.01s.03-.01.05-.02c0,0,0,0,0,0-.02,0-.03.01-.05.02Z" class="cls-1"/><path d="m360.53,812.94s0,0,0,0c0,0,.01,0,.02,0,0,0,0,0,0,0,0,0,0,0-.01,0Z" class="cls-1"/><path d="m361.07,821.26c.14-.13.22-.22,0,0h0Z" class="cls-1"/><path d="m360.77,821.48s.03-.02.05-.03c-.09.03-.16.06-.21.08,0,0,0,0-.01,0,0,0,.03,0,.04-.01.04-.02.09-.03.13-.05Z" class="cls-1"/><path d="m360.93,821.41s0,0,0,0c0,0-.01,0-.02,0,0,0,0,0,0,0,0,0,0,0,.01,0Z" class="cls-1"/><path d="m365.69,809.25c-2.56-.83-5.41-1-8.03-.29-2.12.57-4.24,1.53-5.69,3.23-2.25,2.63-2.75,6.36-.86,9.36,2.53,3.99,7.81,4.76,12.1,3.98,4.36-.78,8.28-4.05,8.34-8.71-.05-3.5-2.6-6.51-5.87-7.58Zm-4.68,3.5s-.03.01-.04.02c0,0-.02.01-.03.02,0,0,0,0,0,0-.02.01-.04.02-.06.03,0,0,0,0,0,0,0,0-.01,0-.02,0-.1.04-.18.08-.25.11,0,0,.02-.01.03-.02,0,0,0,0,.01,0-.03.01-.07.03-.11.04,0,0-.01.01-.02.02,0,0-.02,0-.02,0,0,0,.02-.02.03-.02-.03.01-.06.02-.1.04,0,0,.01,0,.02,0-.02,0-.04.01-.05.02-.02,0-.03,0-.06,0,0,0,0,0-.01,0,.01,0,.03-.02.05-.03.02,0,.04.01.05.02.03-.01.07-.03.11-.04.02-.02.04-.03.05-.05-.02.02-.02.03-.04.04.05-.02.1-.04.15-.06.03-.01.05-.03.08-.04.02,0,.04,0,.05-.01.03-.01.06-.02.09-.04,0,0-.02,0-.04,0,.07-.03.11-.04.09-.02.01,0,.03-.01.04-.02Zm-1.14.13s-.02,0-.03,0c-.03,0-.06-.01-.09-.03.04,0,.08.02.12.02Zm.14.03s.01,0,.02,0c.05.02.09.03.14.05.01,0,.02,0,.03.01-.07-.02-.17-.04-.28-.07.03,0,.04,0,.09,0Zm.28.11s.02.01.04.02c-.05.01-.06,0-.04-.02Zm.18,0s0,0-.03,0c0,0,.01-.01.02-.02,0,0,.01,0,.01,0h0Zm-.02,8.59s.03-.01.04-.02c0,0,.02-.01.03-.02,0,0,0,0,0,0,.02-.01.04-.02.06-.03,0,0,0,0,0,0,0,0,.01,0,.02,0,.09-.04.18-.08.25-.11,0,0-.02.01-.03.02,0,0,0,0-.01,0,.03-.01.07-.03.11-.04,0,0,.01-.01.02-.02,0,0,.02,0,.02,0,0,0-.02.02-.03.02.03-.01.06-.02.1-.04,0,0,0,0-.02,0,.02,0,.04-.01.05-.02.02,0,.03,0,.06,0,0,0,0,0,.01,0-.01,0-.03.02-.05.03-.02,0-.04-.01-.05-.02-.03.01-.07.03-.1.04-.02.02-.04.03-.05.05.02-.02.02-.03.04-.04-.05.02-.1.04-.15.06-.03.01-.05.03-.08.04-.02,0-.04,0-.05.01-.03.01-.06.02-.09.04,0,0,.02,0,.04,0-.07.03-.11.04-.09.02-.01,0-.03.01-.04.02Zm1.14-.13s.02,0,.03,0c.03,0,.06.01.09.03-.04,0-.08-.02-.12-.02Zm-.14-.03s-.01,0-.02,0c-.05-.02-.09-.03-.14-.05-.01,0-.02,0-.03-.01.07.02.17.04.28.07-.03,0-.04,0-.09,0Zm-.28-.11s-.02-.01-.03-.02c.05-.01.06,0,.03.02Zm-.18,0s0,0,.03,0c0,0-.01.01-.02.02,0,0-.01,0-.01,0,0,0,0,0,0,0Zm1.75-2.92c-.18.71-.46,1.37-.85,1.99-.18.23-.36.46-.57.66-.08.08-.17.15-.26.22,0,0-.01,0-.02,0,0,0,.02-.02.03-.03-.01,0-.02.02-.03.03-.08-.04-.15-.09-.23-.14-.27-.18-.5-.4-.73-.61-.48-.55-.87-1.17-1.16-1.84-.26-.89-.33-1.81-.22-2.73.17-.72.46-1.4.86-2.03.18-.23.36-.46.57-.66.08-.08.17-.15.26-.22,0,0,.01,0,.02,0,0,.01-.02.02-.03.03.01-.01.02-.02.03-.03.08.04.15.09.23.14.27.18.5.4.73.61.48.54.86,1.15,1.14,1.81.18.62.3,1.25.31,1.9,0,.3-.05.6-.09.89Z" class="cls-1"/><path d="m360.39,813.1c-.14.13-.21.22,0,0h0Z" class="cls-1"/><path d="m361.09,821.35s-.03.01-.05.02c0,0,0,0,0,0,.02,0,.03-.01.05-.02Z" class="cls-1"/><path d="m456.52,574.77c3.28,2.27,7.39,2.81,11.29,2.81.11,0,.43,0,.82-.03,2.85-.12,5.7-.69,8.1-2.3,1.94-1.3,3.45-3.28,4.23-5.48,1.62-4.54-.22-9.81-4.21-12.48-2.82-1.9-6.23-2.55-9.57-2.71-3.32-.15-6.74.18-9.7,1.8-4.2,2.3-6.52,7.36-5.34,12.03.64,2.54,2.22,4.87,4.38,6.36Zm9.92-18.24c-.23-.01-.38-.02-.13-.02.04,0,.09.01.13.02Zm-.16-.02c-.27,0-.17-.02,0,0h0Zm-2.51,2.33c.7-.64,1.5-1.23,2.35-1.65.33-.16.67-.27,1.01-.39.09.04.18.08.27.12.39.19.76.4,1.11.65,3.23,2.3,4.84,6.25,4.13,10.16-.39,2.15-1.44,4.09-3.04,5.58-.74.69-1.6,1.31-2.53,1.73-.17.08-.34.14-.52.21-.03.01-.16.05-.31.1-.74-.34-1.41-.73-2.04-1.26-1.48-1.23-2.61-2.85-3.18-4.69-1.15-3.71-.12-7.89,2.74-10.54Z" class="cls-1"/><path d="m501.28,607.28c4.8-.86,8.43-5.23,8.5-10.06-.06-4.34-2.9-8.08-6.93-9.54-2.17-.79-4.59-.96-6.83-.34-2.33.65-4.23,1.95-5.77,3.8-2.67,3.21-2.7,7.87-.62,11.37,2.38,3.98,7.26,5.57,11.65,4.78Zm-4.38-10.51c.07-.29.15-.57.26-.84.1-.17.21-.35.33-.51.18-.18.37-.34.56-.49.12-.07.24-.13.36-.18.13-.04.26-.07.4-.09.09,0,.18,0,.26,0,.14.03.27.06.4.09.12.06.25.12.36.19.16.13.32.27.46.41.17.22.32.45.46.69.09.24.16.48.22.72.01.17.04.35.04.52,0,.14-.02.27-.03.4-.07.3-.16.59-.27.88-.1.18-.21.35-.33.51-.18.18-.37.34-.56.49-.12.07-.24.13-.36.18-.13.04-.27.07-.4.09-.09,0-.18,0-.26,0-.14-.03-.27-.06-.4-.1-.12-.06-.24-.12-.36-.19-.16-.13-.32-.27-.46-.41-.17-.22-.32-.45-.46-.69-.09-.24-.16-.48-.22-.72-.02-.32-.03-.64,0-.96Z" class="cls-1"/><path d="m590.66,788.67s-.02,0-.03.01c0,0,0,0,.01,0,.01,0,.03-.01.04-.02,0,0-.01,0-.02,0Z" class="cls-1"/><path d="m590.02,788.51c.07.03.14.07.21.1.01,0,.04.01.06.02.02,0,.04,0,.05.01-.06-.04-.18-.09-.37-.16.02.01.03.02.04.03Z" class="cls-1"/><path d="m590.49,788.67s.03,0,.04,0c-.02,0-.03,0-.05,0,0,0,0,0,0,0Z" class="cls-1"/><path d="m590.72,788.67s0,0,0,0c0,0,0,0,0,0Z" class="cls-1"/><path d="m590.49,782.25s-.03,0-.04,0c.02,0,.03,0,.05,0,0,0,0,0,0,0Z" class="cls-1"/><path d="m590.63,782.25s0,0,0,0c.01,0,.03,0,.04,0,0,0,0,0,0,0-.01,0-.03,0-.04,0Z" class="cls-1"/><path d="m590.31,782.24s.02,0,.03-.01c0,0,0,0-.01,0-.01,0-.03.01-.04.02,0,0,.01,0,.02,0Z" class="cls-1"/><path d="m590.96,782.41c-.07-.03-.14-.07-.21-.1-.01,0-.04-.01-.06-.02-.02,0-.04,0-.06-.01.06.04.18.09.37.16-.02-.01-.03-.02-.04-.03Z" class="cls-1"/><path d="m591.11,788.48s.03-.03.04-.04c-.15.07-.26.12-.33.16-.03.01-.07.03-.1.05,0,0,.02,0,.02,0,0,0,0,0,.01,0,0,0-.02.01-.02.01.02,0,.04-.02.06-.03.07-.02.13-.04.19-.07.03-.02.06-.03.08-.05.01,0,.02-.02.03-.03,0,0,0,0-.01,0,0,0,0,0,.01,0Z" class="cls-1"/><path d="m590.25,782.27s-.02,0-.02,0c0,0,0,0-.01,0,0,0,.02-.01.02-.01-.02,0-.04.02-.06.03-.07.02-.13.04-.19.07-.03.02-.06.03-.08.05-.01,0-.02.02-.03.03,0,0,0,0,.01,0,0,0,0,0-.01,0-.02.01-.03.03-.04.04.15-.07.26-.12.33-.16.03-.01.07-.03.1-.05Z" class="cls-1"/><path d="m590.25,782.24s0,0,0,0c0,0,0,0,0,0Z" class="cls-1"/><path d="m594.79,776.51c-4.57-1.62-9.82-.54-13.03,3.2-1.26,1.47-1.89,3.32-2.08,5.22-.19,1.99.48,3.9,1.52,5.56,2.4,3.87,7.42,5.19,11.68,4.42,4.64-.84,8.38-4.79,8.45-9.56-.05-3.98-2.82-7.53-6.54-8.84Zm-4.03,5.78s-.07-.02-.12-.04c-.02,0-.04,0-.05,0,0,0,0,0,0,0,.02,0,.03,0,.05,0,0,0-.01,0-.02,0-.02,0-.03,0-.06-.02,0-.01.05,0,.11.02.08,0,.17,0,.25,0-.1,0-.17,0-.25,0,.02,0,.05.02.08.04Zm-.12-.08c.07-.01.15-.02.2-.05-.04.02-.12.04-.2.05Zm-.2-.02s0,0,0,0c.03-.01.07-.03.1-.04-.04.02-.06.03-.1.04Zm-.1.04s.05-.02.07-.03c0,0,0,0,0,0-.02.01-.04.02-.07.03.02,0,.04,0,.06,0-.03,0-.06,0-.09,0,0,0,0,0,0,0h0s-.02,0-.03,0c0,0,0,0,0,0-.01,0-.02,0-.03,0,0,0,0,0,0,0-.02,0-.03,0-.05,0,.02,0,.04-.01.05,0-.44-.02-.19-.04.08-.01Zm-.15.03c-.11,0-.14,0,0,0h0Zm-.58.32s0,0,0,0c0,0,0,0,0,0,0,0,0,0,0,0Zm.62,6.06s.07.02.12.04c.02,0,.04,0,.05,0,0,0,0,0,0,0-.02,0-.03,0-.05,0,0,0,.01,0,.02,0,.02,0,.03,0,.06.02,0,.01-.05,0-.11-.02-.08,0-.17,0-.25,0,.1,0,.17,0,.25,0-.02,0-.05-.02-.08-.03Zm.12.08c-.07.01-.15.02-.2.05.04-.02.12-.04.2-.05Zm.2.02s0,0,0,0c-.03.01-.07.03-.1.04.04-.02.06-.03.1-.04Zm.1-.04s-.05.02-.07.03c0,0,0,0,0,0,.02-.01.04-.02.07-.03-.02,0-.04,0-.06,0,.03,0,.06,0,.09,0,0,0,0,0,0,0h0s.02,0,.03,0c0,0,0,0,0,0,.01,0,.02,0,.03,0,0,0,0,0,0,0,.02,0,.03,0,.05,0-.02,0-.04.01-.05,0,.44.02.19.04-.08.01Zm.15-.03c.11,0,.14,0,0,0h0Zm.19-.1c-.08.05-.16.09-.22.1-.01,0-.03,0-.05,0,0,0,0,0,.01-.01-.01,0-.02,0-.03.01,0,0-.02,0-.03,0,.02,0,.03-.02.05-.02-.05.01-.11.02-.17.02,0,0-.01,0-.02,0,0,0,.01,0,.02,0-.01,0-.02,0-.03,0,0,0,0,0,0,0,0,0-.02,0-.03,0-.03,0-.05,0-.08,0h0s.05,0,.07,0c-.04,0-.08-.02-.14-.03.01,0,.03.01.04.02-.03-.01-.06-.02-.09-.03-.05-.01-.1-.02-.14-.03-.02-.01-.05-.02-.07-.04-.02-.01-.04-.03-.05-.04-.08-.04-.17-.08-.25-.11h0c.08.03.14.05.21.08-.16-.11-.31-.24-.47-.36-.19-.21-.38-.44-.54-.67-.2-.4-.36-.81-.48-1.23-.06-.49-.07-.97-.03-1.46.1-.41.23-.81.4-1.19.16-.25.33-.48.52-.71.14-.13.28-.26.44-.38-.06.03-.12.06-.2.09,0,0,0,0,0,0,.08-.04.16-.08.24-.12,0,0,0,0,0,0-.16.06-.06,0,.11-.08.08-.05.16-.09.22-.1.01,0,.03,0,.05,0,0,0,0,0-.01.01.01,0,.02,0,.03-.01,0,0,.02,0,.03,0-.02,0-.03.02-.05.02.05-.01.11-.02.17-.02,0,0,.01,0,.02,0,0,0-.01,0-.02,0,.01,0,.02,0,.03,0,0,0,0,0,0,0,0,0,.02,0,.03,0,.03,0,.05,0,.08,0h0s-.05,0-.07,0c.04,0,.08.02.14.03-.01,0-.03-.01-.04-.02.03.01.06.02.09.03.05.01.1.02.14.03.02.01.05.02.07.04.02.01.04.03.06.04.08.04.16.08.25.11,0,0,0,0,0,0-.08-.03-.14-.05-.21-.08.16.11.31.24.47.36.2.21.38.44.54.67.2.4.36.81.48,1.23.04.28.08.57.08.86,0,.19-.03.38-.05.57-.1.42-.24.83-.41,1.22-.16.25-.33.48-.52.71-.14.13-.28.26-.44.38.06-.03.12-.06.2-.09,0,0,0,0,0,0-.08.04-.16.08-.24.12,0,0,0,0,0,0,.16-.06.06,0-.11.08Zm.38-.22s0,0,0,0c0,0,0,0,0,0,0,0,0,0,0,0Z" class="cls-1"/><path d="m590.34,788.67s0,0,0,0c-.01,0-.03,0-.04,0,0,0,0,0,0,0,.01,0,.03,0,.04,0Z" class="cls-1"/><path d="m156.34,485.65c1.09-14.68,3.57-28.65,6.28-43.01,3.42-18.14,7.38-36.18,11.53-54.16,4.15-17.96,8.53-35.86,13.06-53.72,3.58-14.13,7.25-28.24,11.02-42.33,1.73-6.46,3.69-12.89,5.25-19.39.02-.09.05-.18.08-.27,1.34-4.84-7.2-6.41-8.44-1.93-1.47,5.29-2.9,10.59-4.32,15.89-3.59,13.37-7.09,26.76-10.52,40.16-4.54,17.77-8.94,35.58-13.12,53.43-4.27,18.23-8.34,36.52-11.93,54.91-2.97,15.21-5.76,30.53-7.26,45.97-.14,1.48-.27,2.97-.38,4.46-.35,4.75,8.4,4.78,8.75,0Z" class="cls-1"/><path d="m142.31,515.62c.01-1.22-.02-.12-.07.2-.07.48-.14.96-.21,1.44-.24,1.56-.52,3.12-.79,4.68-.9,5.12-1.86,10.23-2.82,15.34-3.07,16.32-6.21,32.62-9.34,48.93-3.8,19.79-7.59,39.58-11.32,59.39-3.4,18.05-6.77,36.11-9.95,54.2-1.93,11.03-4.14,22.13-5.19,33.29-.06.61-.11,1.22-.14,1.84-.19,3.63,8.35,2.21,8.5-.73.51-9.91,2.7-19.88,4.38-29.63,3.03-17.6,6.3-35.16,9.59-52.71,3.76-20.02,7.58-40.03,11.42-60.04,3.24-16.91,6.5-33.82,9.7-50.74,1.63-8.64,3.79-17.4,4.69-26.16.05-.44.06-.85.07-1.3.03-2.82-8.49-1.4-8.52,2Z" class="cls-1"/><path d="m102.67,761.09c-.97-.86-2.88-1.78-3.15.18-1.46,10.58-2.92,21.16-4.38,31.73-2.31,16.78-4.63,33.56-6.94,50.34-.53,3.87-1.07,7.74-1.6,11.61-.26,1.92,1.31,4.21,2.66,5.41.97.86,2.88,1.78,3.15-.18,1.46-10.58,2.92-21.16,4.38-31.73l6.94-50.34c.53-3.87,1.07-7.74,1.6-11.61.27-1.92-1.31-4.21-2.66-5.41Z" class="cls-1"/><path d="m276.29,394.54c-.22-5.6-.44-11.2-.71-16.8-.1-2.04-3.58-2.09-4.9-1.78-1.88.43-3.73,1.67-3.63,3.75.76,15.73,1.29,31.48,1.74,47.22.9,30.99,1.43,62.03.76,93.03-.32,14.96-.83,29.98-2.52,44.85-.47,4.17,8.15,3.19,8.56-.43,3.27-28.78,2.97-58.06,2.74-86.98-.22-27.63-.97-55.25-2.04-82.86Z" class="cls-1"/><path d="m267.26,631.64c-.32,8.92-.63,17.84-.95,26.75-.76,21.41-1.52,42.82-2.28,64.23-.92,25.81-1.83,51.63-2.75,77.44-.79,22.32-1.58,44.63-2.37,66.95-.39,10.87-.82,21.75-1.16,32.62,0,.15-.01.3-.02.45-.18,4.94,7.97,2.79,8.1-1.08.32-8.92.63-17.84.95-26.75.76-21.41,1.52-42.82,2.28-64.23.92-25.81,1.83-51.63,2.75-77.44.79-22.32,1.58-44.63,2.37-66.95.39-10.87.82-21.75,1.16-32.62,0-.15.01-.3.02-.45.18-4.94-7.97-2.79-8.1,1.08Z" class="cls-1"/><path d="m220.7,320.34c.38-2.51.93-5.06,1.13-7.59,0-.11.03-.22.05-.32.45-3.01-8.11-1.94-8.48.57-.97,6.47-1.93,12.94-2.9,19.41-2.31,15.46-4.62,30.92-6.93,46.38-2.79,18.7-5.59,37.4-8.38,56.09-2.43,16.23-4.85,32.46-7.28,48.7-.8,5.35-1.6,10.69-2.4,16.04-.37,2.51-.93,5.06-1.13,7.59,0,.11-.03.22-.05.32-.45,3.01,8.11,1.94,8.48-.57.97-6.47,1.93-12.94,2.9-19.41,2.31-15.46,4.62-30.92,6.93-46.38,2.79-18.7,5.59-37.4,8.38-56.09,2.43-16.23,4.85-32.46,7.28-48.7.8-5.35,1.6-10.69,2.4-16.04Z" class="cls-1"/><path d="m175.87,550.33c-2.45,13.63-4.89,27.26-7.34,40.9-3.88,21.64-7.76,43.28-11.64,64.92-.89,4.98-1.78,9.95-2.68,14.93-.42,2.32,8.01,1.08,8.41-1.12,2.45-13.63,4.89-27.26,7.34-40.9,3.88-21.64,7.76-43.28,11.64-64.92.89-4.98,1.78-9.95,2.68-14.93.42-2.32-8.01-1.08-8.41,1.12Z" class="cls-1"/><path d="m142.51,722.48c-1.7,13-3.39,26-5.09,39-2.71,20.73-5.41,41.46-8.12,62.19-.62,4.77-1.25,9.54-1.87,14.31-.64,4.88,7.63,3,8.13-.86,1.7-13,3.39-26,5.09-39,2.71-20.73,5.41-41.46,8.12-62.19.62-4.77,1.25-9.54,1.87-14.31.64-4.88-7.63-3-8.13.86Z" class="cls-1"/><path d="m242.45,294.91c-1.33,14.65-2.66,29.3-4,43.95-2.13,23.43-4.26,46.85-6.39,70.28-.49,5.35-.97,10.71-1.46,16.06-.36,3.96,8.11,5.72,8.53,1.15,1.33-14.65,2.66-29.3,4-43.95,2.13-23.43,4.26-46.85,6.39-70.28.49-5.35.97-10.71,1.46-16.06.36-3.96-8.11-5.72-8.53-1.15Z" class="cls-1"/><path d="m228.48,467.99c-1.46,15.3-2.92,30.59-4.38,45.89-2.32,24.28-4.63,48.56-6.95,72.85-.53,5.57-1.06,11.14-1.59,16.71-.14,1.49,1.45,3.71,2.16,4.95.22.38,1.96,2.96,2.02,2.39,1.46-15.3,2.92-30.59,4.38-45.89,2.32-24.28,4.63-48.56,6.95-72.85.53-5.57,1.06-11.14,1.59-16.71.14-1.49-1.45-3.71-2.16-4.95-.22-.38-1.96-2.96-2.02-2.39Z" class="cls-1"/><path d="m203.51,680.18c-.28-.14-4.32-1.79-4.35-1.06-.43,14.23-.85,28.45-1.28,42.68-.67,22.5-1.35,45-2.02,67.51-.16,5.19-.31,10.38-.47,15.57-.04,1.21,2.67,2.31,3.55,2.73.28.14,4.32,1.79,4.35,1.06.43-14.23.85-28.45,1.28-42.68.67-22.5,1.35-45,2.02-67.51.16-5.19.31-10.38.47-15.57.04-1.21-2.67-2.31-3.55-2.73Z" class="cls-1"/><path d="m199.78,841.16c-1.64-.7-4.01-.31-4.21,1.84-1.26,13.62-2.51,27.24-3.77,40.85l-.54,5.81c-.2,2.16,1.37,4.29,3.31,5.12,1.64.71,4.01.31,4.21-1.84,1.26-13.62,2.51-27.24,3.77-40.85.18-1.94.36-3.87.54-5.81.2-2.16-1.37-4.29-3.31-5.12Z" class="cls-1"/><polygon points="750.33 203.69 711.04 189.77 694.7 213.52 734 227.44 750.33 203.69" class="cls-1"/><path d="m639.58,278.34l76.85,27.23c1.08.4,1.97,1.28,2.31,2.47l18.23,63.48,53.9-37.67c.97-.8,2.32-1.08,3.59-.63l69.14,24.5c5.44,1.93,11.23,1.44,16.12-.89,4.89-2.33,8.91-6.51,10.84-11.97l47.1-132.92c1.94-5.47,1.46-11.25-.87-16.14-2.33-4.88-6.52-8.89-12-10.83l-224.03-79.39c-5.47-1.94-11.25-1.46-16.14.87-4.88,2.33-8.89,6.52-10.83,12l-47.1,132.92c-1.94,5.46-1.46,11.25.87,16.13,2.33,4.89,6.52,8.9,11.99,10.84Zm232.3,5.7l19.44-54.85c.69-1.93,2.81-2.94,4.74-2.25,1.93.69,2.94,2.81,2.25,4.74l-19.44,54.85c-.69,1.93-2.81,2.94-4.74,2.25s-2.94-2.81-2.25-4.74Zm-7.07,19.94l.22-.62c.69-1.93,2.81-2.94,4.74-2.25,1.93.69,2.94,2.81,2.25,4.74l-.22.62c-.69,1.93-2.81,2.94-4.74,2.25s-2.94-2.81-2.25-4.74Zm-82.88-57.16l31.81-5.89-21-24.6c-1.33-1.55-1.15-3.9.41-5.23,1.55-1.33,3.9-1.15,5.23.41l21.01,24.61,10.81-30.5c.69-1.93,2.81-2.94,4.74-2.25s2.94,2.81,2.25,4.74l-10.8,30.49,31.81-5.89c2.01-.37,3.96.96,4.33,2.98.37,2.01-.96,3.96-2.98,4.33l-31.81,5.89,21,24.6c1.33,1.55,1.15,3.9-.41,5.23-1.55,1.33-3.9,1.15-5.23-.41l-21.01-24.61-10.81,30.49c-.69,1.93-2.81,2.94-4.74,2.25s-2.94-2.81-2.25-4.74l10.8-30.48-31.81,5.89c-2.01.37-3.96-.96-4.33-2.98-.37-2.01.96-3.96,2.98-4.33Zm-108.18-36.79c.69-1.93,2.81-2.94,4.74-2.25l8.96,3.18,16.33-23.75-16-5.67c-1.93-.69-2.94-2.81-2.25-4.74s2.81-2.94,4.74-2.25l17.87,6.33,9.74-14.17c1.16-1.69,3.48-2.12,5.17-.96,1.69,1.16,2.12,3.48.96,5.17l-8.61,12.53,39.3,13.92,9.74-14.16c1.16-1.68,3.46-2.11,5.14-.95,1.68,1.16,2.11,3.46.95,5.14l-8.61,12.53,7.11,2.52c1.93.69,2.94,2.81,2.25,4.74s-2.81,2.94-4.74,2.25l-8.98-3.18-16.34,23.75,16.03,5.68c1.93.69,2.94,2.81,2.25,4.74s-2.81,2.94-4.74,2.25l-17.89-6.34-9.73,14.16c-1.16,1.68-3.46,2.11-5.14.95-1.68-1.16-2.11-3.46-.95-5.14l8.61-12.53-39.3-13.92-9.74,14.16c-1.16,1.69-3.48,2.12-5.17.96s-2.12-3.48-.96-5.17l8.61-12.52-7.1-2.52c-1.93-.69-2.94-2.81-2.25-4.74Z" class="cls-1"/><path d="m941.69,488.35c9.49-42.33,74.54-54.99,80.47-97.96-35.12,1.32-49.32,48.03-80.8,63.66,17.07-29.47,34.14-58.95,51.21-88.42,4.61-7.95,7.58-20.93-1.11-23.92-23.89,26.56-42.57,57.78-54.67,91.39-1.83,5.07-3.64,10.41-7.56,14.11-3.92,3.7-10.69,5.02-14.59,1.3l42.61-95.07c1.82-4.06,3.68-8.47,2.76-12.83-.93-4.35-6.05-8.01-9.89-5.75-47.03,46.82-32.95,135.61-85.45,176.19-20.35-20.68-40.7-41.36-61.06-62.04-9.28-9.43-24.54-19.2-34.15-10.11,18.69,42.32,37.37,84.64,56.06,126.96,1.39,3.14,2.8,6.44,2.6,9.87-.31,5.25-4.26,9.44-7.72,13.39-22.14,25.23-32.44,58.35-45.84,89.13-13.28,30.52-30.07,59.52-49.94,86.23-8.39-10.41-16.96-20.68-25.69-30.82-.36-4.36-.7-8.72-1.07-13.08-2.83-33.88-5.62-67.83-9.89-101.57-4.45-35.16-9.22-70.28-13.63-105.44-2.24-17.89-4.47-35.78-6.68-53.67.11.07.23.14.35.2-.14-.18-.26-.38-.39-.56-1.78-14.38-3.54-28.77-5.3-43.15,13.88-8.67,27.77-17.33,41.65-26-15.22-2.17-30.44-4.34-45.67-6.51-.97-7.09-2.11-14.14-3.68-21.18-3.88-17.4-9.02-34.6-16.02-51.01-8.21-19.25-19.17-37.6-35.31-51.23-23.33-19.7-54.3-32.43-85.02-33.19-17.89-.44-35.78-.94-53.66-1.42-31.67-.84-63.33-1.67-95-2.51-26.38-.7-52.76-1.39-79.14-2.09-5.24-.14-10.5-.41-15.74-.42-9.2-.01-18.59,1.31-27.71,2.36-9.5,1.09-18.97,2.46-28.34,4.34-8.11,1.63-16.47,3.55-23.98,7.14-5.44,2.6-9.63,6.65-13.59,11.12-5.7,6.43-10.72,13.47-15.45,20.63-12.72,19.29-23.5,39.99-32.43,61.29-8.5,20.27-14.48,40.93-18.3,62.56-6.62,37.47-13.43,74.91-20.23,112.35-4.88,26.84-9.77,53.68-14.69,80.51-2.86,15.65-4.87,31.5-7.28,47.22-4.64,30.32-9.29,60.65-13.93,90.97-1.95,12.72-3.78,25.34-5.22,38.12l-10.09,89.15c-.75,6.65-1.5,13.3-2.26,19.95-.07.66.75,1.34,1.25,1.56,3.23,1.47,6.45,2.94,9.68,4.41.72.33,1.55.56,2.4.68.63.45,1.31.82,1.96,1.07,8.27,3.25,16.54,6.5,24.81,9.75,19.86,7.81,39.72,15.61,59.58,23.42,24.02,9.44,48.05,18.88,72.07,28.33,20.68,8.13,41.36,16.26,62.03,24.38l20.58,8.09c1.81.71,3.65,1.54,5.5,2.3.28.36.62.66.98.91.86,1.25,2.17,2.09,3.67,1.76,9.71-2.14,20.46-1.7,29.42-6.52,2.33-1.26,4.15-2.7,5.58-4.45.86-.25,1.72-.5,2.58-.75,1.22-.36,1.94-1.53,1.92-2.75-.05-2.86-.1-5.73-.15-8.59.1-.84.17-1.67.22-2.51,5.38-1.19,10.75-2.43,16.12-3.69l14.59-3.01c11.69-2.41,23.38-4.83,35.07-7.24,4.61-.67,9.23-1.29,13.84-2.03,27.59-4.42,54.63-11.6,82.06-16.87,14.04-2.7,28.22-4.59,42.3-7.05,13.97-2.44,27.88-5.18,41.73-8.21,14.03-3.06,28-6.4,41.91-9.96,3.62-.93,7.24-1.87,10.86-2.82,1.49-.39,2.57-.71,3.59-1.84,8.45-1.71,16.91-3.41,25.34-5.22v9.5c0,2.58,5.03,2.4,6.54,2.03,9.55-2.35,19.11-4.71,28.66-7.06.75-.19,2.28-.78,2.21-1.82-1.18-17.53-2.42-35.05-3.69-52.58-.22-3.03-.45-6.06-.67-9.09,8.75,8.07,17.57,16.08,26.51,23.95,4.63,4.08,10.82,8.4,16.43,5.85,3.28-1.49,5.16-4.9,6.81-8.1,33.4-64.74,63.82-131.01,91.14-198.55,5.41-13.37,10.93-27.17,20.99-37.51,13.51-13.9,33.65-19.92,46.92-34.05,15.16-16.14,18.95-40.2,32.83-57.45,14.51-18.04,37.86-26.14,60.23-32.09,13.34-3.55,29.5-9.52,31.1-23.23-34-.2-68,9.21-97.06,26.86Zm-257.19,179.73c1.72,18.17,3.31,36.35,4.82,54.54-6.55-7.42-13.19-14.75-19.91-22.01-.12-1.26-.25-2.51-.37-3.77.64-.52,1.04-1.17.95-1.93-3.35-31.94-5.82-64.01-10.91-95.74,0,0,0,0,0,0-.08-.74-.16-1.47-.24-2.21,2.18-.55,4.33-1.16,6.45-1.92-2.67-22.76-1.97-45.9,1.98-68.48,2.16,17.13,4.33,34.25,6.55,51.37,3.9,30.04,7.82,60,10.68,90.16Zm-122.45,229.28c-32.42,6.7-64.85,13.39-97.27,20.09-14.05,2.9-28.1,5.8-42.15,8.71-6.08.94-12.18,1.81-18.26,2.78-19.86,3.19-39.34,8.23-58.95,12.66,0-.09,0-.19,0-.28-.1-7.17-.21-14.34-.31-21.5l6.84-1.29c8.2-1.54,16.39-3.09,24.59-4.63,12.12-2.28,24.24-4.57,36.36-6.85,14.72-2.77,29.44-5.54,44.15-8.32,16.19-3.05,32.38-6.1,48.57-9.15,16.34-3.08,32.69-6.16,49.03-9.23,15.18-2.86,30.35-5.72,45.53-8.57,12.89-2.43,25.77-4.85,38.66-7.28,9.27-1.75,18.53-3.49,27.8-5.24,2.16-.41,4.33-.81,6.49-1.22-.34,4.01-.91,8.01-1.8,11.99-4.7,3.57-10.11,5.75-15.94,6.76-3.09.53-6.23.31-9.3.77-2.36.35-3.71,1.88-5.14,3.51-26.29,5.43-52.59,10.86-78.88,16.29Zm-207.61-303.83c-.2-1.8-.07-3.68-.07-5.48,0-5.8-.1-11.6,0-17.4.02-1,.11-1.97.39-2.94.4-1.39,1.62-4.15,3.07-4.59,1.25-.38,3.42.63,4.51,1.29,1.98,1.21,3.44,3.03,4.19,5.21.75,2.16.57,4.48.57,6.73v9.49c0,2.91.04,5.83,0,8.75-.02,1.43-.21,2.82-.76,4.16-.35.85-1.06,2.16-1.89,2.91-2.57-.9-5.13-1.79-7.66-2.69-1.29-1.55-2.14-3.49-2.36-5.44Zm34.29,109.74c20.94,21.93,36.35,50.79,35.78,81.11-.35,18.36-18.11,54.38-25.01,72.21-7.06,1.3-14.11,2.59-21.17,3.89-9.19,1.69-18.39,3.38-27.58,5.07-2.13.39-4.27.78-6.4,1.18-.04-2.33-.06-4.67-.1-7-.83-54.73-1.75-109.47-2.73-164.2-.17-9.54-.36-19.07-.54-28.61,17.66,11.06,35.24,23.27,47.75,36.36Zm-2.09-94.9s-.06.03-.09.04c0,0,.01,0,.02,0,.03-.01.04-.02.08-.03Zm-.83.55s0,0,0,0c.03-.02.1-.08.16-.13.45.03.9.09,1.35.19.87.19,1.71.56,2.48.99.29.17.56.36.83.56-1.62-.53-3.23-1.06-4.84-1.6Zm49.61-110.52c-.01.24-.03.48-.05.72-.02.14-.04.27-.06.41-.14.48-.27.96-.45,1.42-.08.19-.16.37-.25.55.08-.18-.19.35-.24.43-.29.46-.62.9-.99,1.31-.18.21-.38.4-.57.6-.04.05-.07.07-.09.1-.03.02-.07.04-.12.08-.89.63-1.78,1.21-2.81,1.59-.04,0-.04,0-.09.02-.37.08-.73.18-1.1.25-.51.09-1.03.12-1.55.13-.12-.02-.65-.05-.77-.07-.51-.07-.99-.2-1.49-.32-.03-.02-.04-.02-.08-.04-.21-.1-.43-.18-.63-.28-.21-.1-.41-.21-.61-.32,0,0,0,0-.01,0-.02-.02-.03-.03-.06-.06-.21-.17-.43-.34-.65-.5-.09-.06-.14-.11-.18-.14-.19-.22-.4-.49-.52-.65-.09-.15-.18-.3-.27-.45,0,.03.01.05,0,.08,0-.02,0-.06-.01-.09-.02-.03-.04-.07-.06-.1-.16-.26-.15-.32-.1-.31-.05-.11-.11-.22-.13-.28-.02-.06-.04-.12-.06-.18-.02-.14-.07-.29-.09-.4-.02-.11-.06-.29-.09-.47-.01.14-.02.17,0-.21,0-.06-.02-.13,0-.17,0-.03.01-.03.02-.02.01-.38.02-.76.07-1.15.01-.08.04-.24.06-.34.05-.19.09-.37.15-.56.14-.45.32-.87.5-1.3.02-.06.03-.09.05-.12.02-.03.04-.06.08-.11.13-.19.24-.39.37-.58.26-.38.54-.73.85-1.07.15-.17.32-.33.47-.49.05-.05.07-.08.1-.1.03-.02.06-.04.12-.08.8-.57,1.58-1.06,2.48-1.46.06-.03.21-.08.3-.11.17-.05.35-.1.52-.14.51-.12,1.03-.2,1.55-.25.25-.02.49-.03.74-.03,0,0,.01,0,.02,0,.48.04.95.1,1.42.2.23.05.46.11.68.17.02,0,.02,0,.04,0,0,0,0,0,.02.02.39.27.95.43,1.37.65,0,0,0,0,.01,0,.02.02.03.03.07.06.17.14.36.28.54.42.08.06.13.09.18.13.1.11.2.23.22.25.13.14.25.29.37.44.09.17.21.33.31.5.03.05.05.1.08.16.06.19.15.37.21.55.02.06.1.38.13.49,0,.04.01.08.02.09.04.23.05.48.09.71,0,.01,0,.01,0,.02-.02.65,0,.03,0,.43Zm-12.51,6.21s-.18-.12-.35-.32c.13.1.37.3.35.32Zm10.83-10.09s.1.08.19.18c-.1-.08-.21-.17-.19-.18Zm162.76,217.33c.68,1.99.44,4.34.44,6.42v9.59c0,4.03,1.54,15.16-4.38,15.33-4.41,0-8.06-3.86-8.44-8.14,3.43-8.56,6.96-17.08,10.62-25.54.49.55,1,1.1,1.49,1.65.1.23.19.46.27.68Zm-152.6-390.04c-.21-6.98-.42-13.96-.63-20.94-.07-2.27-.14-4.53-.21-6.8,5.01,3.5,9.04,8.25,12.19,13.56-4.13,4.45-7.93,9.19-11.35,14.18Zm23.74,307.19c-4.38,0-6.98-5.18-7.08-8.92-.04-1.67,0-3.34,0-5.01,0-5.64-.1-11.29,0-16.93.05-2.9,1.51-7.1,4.66-8.03,3.42-1,6.73,3.61,7.38,6.47.46,2.01.26,4.24.26,6.28v9.68c0,2.73.02,5.46,0,8.19-.02,1.7-.34,3.27-1.16,4.78-.72,1.33-2.41,3.44-4.06,3.49Zm-123.26,239.07l6.17-1.13c8.12-1.49,16.25-2.98,24.37-4.48,11.38-2.09,22.77-4.18,34.15-6.27,2.15.11,4.29.28,6.36.33.65.01,1.24.12,1.78.28,2.17-.41,4.34-.82,6.51-1.21,17-4.65,34.37-8.24,51.6-11.46,12.78-2.39,25.68-4.13,38.5-6.26,5.85-1.53,11.74-2.89,17.65-4.17,6.77-1.24,13.54-2.49,20.31-3.73,15.12-2.78,30.24-5.55,45.36-8.33,12.78-2.35,25.56-4.7,38.34-7.04,9.19-1.69,18.39-3.38,27.58-5.07,2.41-.44,4.83-.89,7.24-1.33,1.04,13.91,2.26,27.94,2.8,41.96-2.4.45-4.8.9-7.2,1.36-8.2,1.54-16.39,3.09-24.59,4.63-12.12,2.28-24.24,4.57-36.36,6.85-14.72,2.77-29.44,5.54-44.15,8.32-16.19,3.05-32.38,6.1-48.57,9.15-16.34,3.08-32.69,6.16-49.03,9.23-15.18,2.86-30.35,5.72-45.53,8.57-12.89,2.43-25.77,4.85-38.66,7.28-9.27,1.75-18.53,3.49-27.8,5.24-2.07.39-4.14.78-6.21,1.17-.21-14.63-.41-29.25-.63-43.88Zm325.82-61.2c-2.31.42-4.62.85-6.92,1.27-8.12,1.49-16.25,2.98-24.37,4.48-12.02,2.21-24.03,4.41-36.05,6.62-14.66,2.69-29.32,5.39-43.98,8.08-2.36.43-4.72.87-7.08,1.3,8.18-28.05,17.59-55.74,28.16-82.98,2.26,2.03,5.27,3.24,8.5,3.24.35,0,.71-.04,1.07-.1,6.13-.53,12.22-4.04,14.62-9.9,1.13-2.76.93-5.7.93-8.6s.09-6.1.13-9.16c20.51,22.66,41.67,44.73,63.46,66.17.53,6.53,1.05,13.06,1.54,19.59Zm-19.59-207.4c-.15.32-.22.66-.16,1.04.32,2.02.61,4.05.92,6.08,2.95,27.93,5.79,55.87,8.52,83.83-15.26-16.11-30.96-31.81-47.07-47.07.6.45,1.22.87,1.83,1.27,2.88,1.89,6.17,3.74,9.71,3.74,5.57-.16,10.36-4.26,10.71-9.96.14-2.36.02-4.76.02-7.12v-11.71c0-2.72.24-5.56-.81-8.14-1.18-2.89-3.63-4.99-6.13-6.75-2.73-1.93-5.85-3.81-9.21-4.29-5.28-.75-10.53,2.67-11.86,7.85-.63,2.46-.33,5.28-.33,7.79v11.81c0,3.06-.37,6.48.81,9.37.39.94.92,1.8,1.53,2.6-9.84-9.25-19.83-18.33-29.96-27.25,5.1-9.89,11.34-19.2,18.57-27.67,14.94,11.17,34.34,15.95,52.82,13.62.03.32.07.65.1.97Zm-25.07,5.75c.15.02.34.07.52.12,1.1,1.64,1.64,3.56,1.68,5.53.12,5.33,0,10.69,0,16.02,0,2.04.05,4.1,0,6.14-.15,5.7-4.53,10.28-10.27,10.44-.55,0-1.17-.18-1.77-.32-.23-.36-.46-.73-.65-1.12-.69-1.47-.95-3-.96-4.61-.02-2.32,0-4.64,0-6.95,0-5.13-.3-10.35.02-15.47.29-4.69,3.82-8.88,8.5-9.7.96-.17,1.96-.19,2.93-.08Zm9.27-146.11c.13,2.7.24,5.39.43,8.09.23,3.26.68,6.45,1.31,9.66.72,3.62,1.07,7.35,1.56,11.01.32,2.41.64,4.82.96,7.23,1.28,11.08,2.55,22.16,3.79,33.25.07.8.16,1.6.23,2.39,0,.08.04.15.06.23.16,1.45.32,2.9.48,4.35-19.91,5.5-42.69,1-56.3-14.54-19.89-22.72-11-64.91,17.54-74.77,9.22-3.19,18.79-3.07,28.25-.98.57,4.69,1.13,9.39,1.69,14.08Zm-320.09-149.92c-1.84-5.76-3.9-11.47-6.22-17.06-.49-1.61-1.05-3.24-1.78-4.91-5.46-12.58-13.29-24.31-21.17-35.64-.58-1.16-1.14-2.32-1.65-3.52-.98-2.32-1.85-4.2-3.31-5.99,22.19-.1,44.38-.44,66.57-.8h124.54c7.16,0,14.32.91,21.43,1.63,20.02,2.04,40.69,4.24,59.95,10.34,19.6,6.22,33.08,25.5,43.4,42.22,5.42,8.78,10.26,18.12,14.29,27.78-19.17-30.74-44.01-54.91-86.91-51.05-15.36,1.38-30.03,6.61-43.18,14.59-.1-.04-.2-.1-.31-.14-.62-.26-.84.2-.87.87-7.36,4.59-14.22,10.04-20.44,16.17-4.43-5.3-10-9.33-16.3-12.18-.48-.56-1.75-1.02-3.16-1.38-1.41-.59-3.07-1.2-4.29-.97-.21.04-.34.09-.42.15-.15-.01-.25-.02-.25-.02.46,15.22.92,30.43,1.38,45.65-3.07,5.87-5.7,11.95-7.93,18.18-.09-3.76-.37-7.53-.77-11.22-1.49-13.78-5.34-28.02-13.65-39.33-5.17-7.04-11.94-12.58-20.04-15.91-.75-.31-1.3-.13-1.7.27-.46.31-.78.86-.75,1.67v.37c0,.14.02.26.02.39.62,20.47,1.24,40.94,1.86,61.4.09,2.97.18,5.93.27,8.9.07,2.2,1.39,6.1,4.18,6.1h26.66c-1.21,4.6-2.21,9.25-3.03,13.95-1.86-2.16-4.48-3.66-7.51-4.04-6.87-.87-14.29,3.16-17.3,9.4-1.43,2.95-1.21,6.15-1.21,9.32v12.59c0,3.23-.08,6.46,0,9.69.16,6.87,5.71,11.9,12.5,11.9,3.96-.12,8.08-1.69,11.21-4.32.09,1.43.17,2.86.28,4.29,1.6,19.72,5.98,39.41,13.57,57.65-3.95-1.71-8.6-1.65-12.31.77-4.74,3.09-6.91,9.06-5.6,14.53,1.69,7.04,7.56,12.58,14.98,12.58,5.41-.07,10.3-3.92,11.84-9.08.05-.16.08-.33.12-.5,3.34,5.76,7.04,11.31,11.17,16.56,8.8,11.19,19.56,20.99,31.59,28.64,0,.02,0,.04.02.07,1.99,6.94,9.45,8.58,15.82,8.7.14,0,.28,0,.42,0,.09,0,.18,0,.27,0,11.72,5.07,24.23,8.14,37.04,8.65-.57,23.49-20.19,41.49-38.27,56.49-4.57,3.79-9.3,7.67-14.98,9.41-5.56,1.7-11.42,1.19-17.19,0,5.61-.61,11.31-3.33,13.28-9,.91-2.63.67-5.54.67-8.28v-11.76c0-2.41.21-4.92-.07-7.32-1.54-13.62-22.18-13.96-28.14-3.56-1.6,2.79-1.49,5.84-1.49,8.92v11.52c0,2.86-.26,5.86.07,8.71.39,3.46,2.26,6.2,4.84,8.06-17.01-4.54-35.29-9.96-53.67-15.81-.46-2.48-1.75-4.8-3.8-6.51-4.77-3.98-11.98-2.83-17.23-.36-4.42-1.48-8.81-2.97-13.17-4.48,2.32-1.46,4.27-3.44,5.46-5.94,1.26-2.67,1.01-5.66,1.01-8.53,0-6.19.15-12.39,0-18.57-.14-5.86-4.78-10.4-10.52-11-6-.62-13.33,2.14-16.75,7.28-1.91,2.88-1.99,5.89-1.99,9.18v11.29c0,2.74-.07,5.5,0,8.24-2.19-.8-4.36-1.59-6.51-2.38-.38-20.25-.74-40.5-1.14-60.75-.09-4.84-.19-9.68-.28-14.52-.22-18.35-.43-36.71-.55-55.06-.09-12.47-.29-24.96.02-37.43.38-15.2-1.88-30.13-5.01-44.97-2.58-12.22-5.69-24.31-9.07-36.33-2.51-11.61-5.24-23.17-8.85-34.5Zm84.35,48.42c-.57-18.69-1.13-37.37-1.7-56.06-.06-1.93-.12-3.87-.18-5.8,2.23,1.11,4.34,2.43,6.33,3.97,2.31,1.79,4.72,4.33,6.27,6.35,2.16,2.82,3.29,4.71,4.73,7.62,1.58,3.18,2.28,4.98,3.32,8.25,1.91,5.96,2.88,10.99,3.6,17.31.29,2.6.5,5.2.62,7.81.08,1.73.06,1.22.09,2.84.02,1.02.02,2.03.01,3.05-.01,1.55-.06,3.11-.15,4.67h-22.95Zm12.56,65.33c-4.85,0-8.39-4.65-8.5-9.18-.05-1.97,0-3.96,0-5.93v-19.54c0-2.38.45-6.01,3-6.89,4.64-1.59,9.43,3.57,9.94,7.76.24,1.94.07,3.98.07,5.93v20.79c0,3.17-.86,6.96-4.51,7.07Zm247.28,36.49c2.61,21.1,5.23,42.19,7.89,63.29-4.42,4.05-9.51,7.3-15,9.71-.03-.3-.07-.6-.1-.9.09-.17.14-.35.13-.55-1.21-14.34-3.06-28.61-4.98-42.87-.36-2.68-.62-5.4-1.03-8.09-.71-6.03-1.42-12.06-2.14-18.09-.22-4.76-.43-9.51-1.25-14.22,5.42,1.89,10.75,4.29,15.9,6.96.2,1.59.39,3.17.58,4.76Zm-2.68-21.85c-1.68-4.92-2.91-9.99-3.63-15.14.55-.34,1.1-.68,1.65-1.03.66,5.39,1.32,10.78,1.98,16.16ZM187.81,249.13c3.58-4.22,7.52-8.53,12.54-11.02,7.27-3.6,15.51-5.33,23.42-6.88,9.01-1.78,18.14-2.99,27.27-4.01,6.75-.75,13.52-1.37,20.3-1.85,1.1-.08,2.21-.13,3.32-.21-.47.02-.43-.02.02,0,.23-.02.46-.03.7-.05-.3.03-.52.04-.69.05.07,0,.14,0,.22.01,16.97,1.15,34.15.9,51.15,1.35,31.29.83,62.58,1.65,93.88,2.48,26.84.71,53.68,1.42,80.52,2.13,5.91.16,11.82.32,17.73.47,1.05.03,2.09.05,3.14.1,2.54.14,3.47.23,6.54.64,3.6.48,7.17,1.12,10.72,1.9,23.04,5.05,45.09,16.47,62.19,32.74,14.78,14.07,24.5,33.02,31.89,51.8,7.8,19.82,14.05,41.13,16.63,62.35.06.49.12.98.18,1.47-2.47-.35-4.93-.7-7.4-1.05-4.32-7.92-8.52-16.26-12.81-24.66-1.61-7.89-3.59-15.71-6.19-23.4-6.09-20.78-15.67-40.53-29.03-57.63-7.1-9.09-15.07-17.71-24.92-23.84-10.67-6.64-22.56-10.55-34.75-13.33-27.18-6.19-55.35-6.03-83.09-6.41-28.21-.39-56.43-.1-84.64.33-31.67.48-63.34,1.11-95.02,1.17-.3-.02-.61-.02-.92,0-.18,0-.37,0-.55,0-.75,0-1.28.27-1.64.68-.47.36-.75.86-.84,1.44-.79.85-.98,2.05.04,3.43,7.14,9.7,13.95,19.69,20.33,29.91,4.1,6.58,8.2,13.34,11.11,20.55,1.8,4.46,2.68,9.3,4.03,13.91,5.82,19.78,12.43,39.74,17.54,59.97,1.34,6.35,2.74,12.68,4.26,18.99,1.86,9.6,3.25,19.27,3.9,29.02,0,.08,0,.15.01.23,0,.25,0,.51,0,.76.11,5.63.22,11.25.33,16.88-.09,7.08-.32,14.16-.29,21.17.09,20.55.32,41.09.56,61.64.32,27.59.7,55.17,1.1,82.76.45,31.42.94,62.84,1.44,94.26.5,31.21,1.01,62.42,1.53,93.62.47,27.81.94,55.63,1.43,83.44.36,20.73.73,41.45,1.1,62.18.16,8.88-.21,17.98.31,26.89-.55,1.17-1.28,2.24-2.22,3.18-8.03,2.34-16.06,4.68-24.09,7.03-.68.1-1.35.2-2.03.31-.01-2.1-.02-4.2-.03-6.31-.06-12.01-.12-24.01-.18-36.02-.09-17.95-.17-35.89-.25-53.84-.1-22.19-.19-44.39-.28-66.58-.1-24.75-.18-49.51-.26-74.26-.08-25.62-.15-51.24-.2-76.87-.05-24.8-.09-49.6-.1-74.4-.01-22.29,0-44.58.04-66.87.04-18.09.1-36.18.23-54.27.09-12.2.18-24.4.46-36.59.09-3.8.14-6.35.31-9.58.15-2.76.59-5.47.49-8.24-.35-10.14-2.88-20.35-5.24-30.17-3.44-14.35-7.57-28.55-12.21-42.56-4.86-14.71-10.28-29.27-16.73-43.36-5.08-11.07-10.69-22.38-18.56-31.76-10.81-12.88-26.4-22.22-43.67-19.13-5.39.97-12.22,2.99-16.05,7.23-8.04,8.91-15.58,18.31-22.66,28-2.32,3.18-4.61,6.42-6.84,9.7,1.87-3.12,3.77-6.23,5.74-9.29,4.83-7.53,9.95-14.92,15.74-21.75ZM57.5,802.53c2.21-19.58,3.93-39.29,6.67-58.8,3.04-21.6,6.61-43.15,9.91-64.71,4.28-27.96,8.56-55.92,12.85-83.88,1.96-12.82,4.37-25.55,6.7-38.31,6.72-36.79,13.42-73.59,20.06-110.4,3.2-17.75,6.4-35.51,9.54-53.28,1.56-8.82,3.05-17.63,5.33-26.3,3.06-11.61,7.06-22.98,11.58-34.1,1.51-3.72,3.1-7.4,4.72-11.08-1.85,5.96-3.14,12.1-4.51,18.17-3.07,13.6-5.9,27.26-8.7,40.92-8.44,41.13-16.46,82.36-24.42,123.58-9.29,48.11-18.82,96.18-26.73,144.54-7.02,42.92-13.07,86-18.42,129.16-3.35,27.06-6.44,54.15-9.14,81.27-.31,3.12-.61,6.24-.9,9.36-.64-.29-1.28-.58-1.92-.87,2.46-21.76,4.92-43.52,7.39-65.28Zm221.08,155.57c-19.86-7.81-39.72-15.61-59.58-23.42-24.02-9.44-48.05-18.88-72.07-28.33-20.68-8.13-41.36-16.26-62.03-24.38l-20.58-8.09c-1.71-.67-3.44-1.44-5.17-2.16,1.27-13.47,2.7-26.93,4.19-40.38,4.02-36.36,8.57-72.66,13.67-108.89,6.52-46.28,14.06-92.4,22.81-138.32,8.84-46.45,17.76-92.88,26.9-139.27,6.42-32.57,12.79-65.18,20.01-97.59,1.62-7.28,3.09-14.71,5.41-21.81,5.5-16.85,15.44-32.29,25.7-46.6,7.36-10.27,15.27-20.18,23.68-29.6,3.67-4.1,8.95-5.98,14.45-7.16,31.03-6.68,46.44,29.08,56.03,52.04,11.28,27.02,20.35,55.43,26.34,84.11,1.59,7.6,3.72,16.25,2.87,23.9-.21,1.86-.32,3.71-.4,5.57-.39,9.57-.46,19.15-.57,28.72-.17,15.83-.25,31.66-.31,47.48-.08,20.61-.1,41.21-.11,61.82,0,23.62.01,47.25.05,70.87.04,25.24.09,50.47.16,75.71.07,25.1.15,50.2.24,75.29.08,23.32.17,46.64.27,69.95.08,19.9.17,39.79.27,59.69.07,14.83.14,29.66.22,44.49.04,8.12.08,16.25.13,24.37v.83c-7.51-2.95-15.03-5.91-22.55-8.86Zm421.9-87.36c.28,4.05.56,8.09.83,12.14-6.61,1.63-13.21,3.26-19.82,4.88v-10.48s0,0,0-.02c.78-5.5.49-11.27.35-16.78-.27-10.66-.89-21.31-1.58-31.95-.69-10.72-1.49-21.43-2.33-32.13,6.12,5.92,12.27,11.79,18.48,17.61,1.39,18.9,2.76,37.81,4.07,56.72Z" class="cls-1"/></svg>