<svg xmlns="http://www.w3.org/2000/svg" version="1.1" viewBox="-5.0 -10.0 110.0 135.0">
 <path d="m91.191 39.598-3.9766-0.48438c-0.78516-2.6836-1.8555-5.2734-3.2031-7.7266l2.4688-3.1562c1.7695-2.2617 1.5742-5.4961-0.45703-7.5273l-6.7305-6.7305c-2.0312-2.0312-5.2656-2.2266-7.5273-0.45703l-3.1562 2.4688c-2.4531-1.3477-5.043-2.418-7.7266-3.2031l-0.48437-3.9766c-0.34766-2.8516-2.7734-5-5.6445-5h-9.5156c-2.8711 0-5.2969 2.1484-5.6445 5l-0.48438 3.9766c-2.6836 0.78516-5.2734 1.8555-7.7266 3.2031l-3.1562-2.4688c-2.2617-1.7695-5.4961-1.5742-7.5273 0.45703l-6.7305 6.7305c-2.0312 2.0312-2.2266 5.2656-0.45703 7.5273l2.4688 3.1562c-1.3477 2.4531-2.418 5.043-3.2031 7.7266l-3.9766 0.48438c-2.8516 0.34766-5 2.7734-5 5.6445v9.5156c0 2.8711 2.1484 5.2969 5 5.6445l3.9766 0.48438c0.78516 2.6836 1.8555 5.2734 3.2031 7.7266l-2.4688 3.1562c-1.7695 2.2617-1.5742 5.4961 0.45703 7.5273l6.7305 6.7305c2.0312 2.0312 5.2656 2.2266 7.5273 0.45703l3.1562-2.4688c2.4531 1.3477 5.043 2.418 7.7266 3.2031l0.48438 3.9766c0.34766 2.8516 2.7734 5 5.6445 5h9.5156c2.8711 0 5.2969-2.1484 5.6445-5l0.48437-3.9766c2.6836-0.78516 5.2734-1.8555 7.7266-3.2031l3.1562 2.4688c2.2617 1.7695 5.4961 1.5742 7.5273-0.45703l6.7305-6.7305c2.0312-2.0312 2.2266-5.2656 0.45703-7.5273l-2.4688-3.1562c1.3477-2.4531 2.418-5.043 3.2031-7.7266l3.9766-0.48438c2.8516-0.34766 5-2.7734 5-5.6445v-9.5156c0-2.8711-2.1523-5.2969-5-5.6445zm0.46875 15.16c0 0.59375-0.42969 1.0781-1.0195 1.1484l-5.4922 0.66797c-0.92969 0.11328-1.6953 0.78906-1.9219 1.7031-0.82031 3.2969-2.125 6.4453-3.8789 9.3594-0.48438 0.80469-0.42188 1.8242 0.15625 2.5625l3.4102 4.3594c0.36719 0.46875 0.32813 1.1133-0.09375 1.5312l-6.7305 6.7305c-0.42188 0.42188-1.0664 0.46094-1.5312 0.09375l-4.3594-3.4102c-0.73828-0.57812-1.7578-0.64062-2.5625-0.15625-2.9141 1.7539-6.0625 3.0586-9.3594 3.8789-0.91016 0.22656-1.5859 0.99219-1.7031 1.9219l-0.66797 5.4961c-0.070312 0.58984-0.55469 1.0195-1.1484 1.0195h-9.5156c-0.59375 0-1.0781-0.42969-1.1484-1.0195l-0.66797-5.4922c-0.11328-0.92969-0.78906-1.6953-1.7031-1.9219-3.2969-0.82031-6.4453-2.125-9.3594-3.8789-0.35938-0.21875-0.76562-0.32422-1.168-0.32422-0.49609 0-0.98828 0.16406-1.3945 0.48047l-4.3594 3.4102c-0.46875 0.36719-1.1133 0.32812-1.5312-0.09375l-6.7305-6.7305c-0.42188-0.42188-0.46094-1.0664-0.09375-1.5312l3.4102-4.3594c0.57812-0.73828 0.64062-1.7578 0.15625-2.5625-1.7539-2.9141-3.0586-6.0625-3.8789-9.3594-0.22656-0.91016-0.99219-1.5859-1.9219-1.7031l-5.4961-0.67188c-0.58984-0.070312-1.0195-0.55469-1.0195-1.1484v-9.5156c0-0.59375 0.42969-1.0781 1.0195-1.1484l5.4922-0.66797c0.92969-0.11328 1.6953-0.78906 1.9219-1.7031 0.82031-3.2969 2.125-6.4453 3.8789-9.3594 0.48437-0.80469 0.42187-1.8242-0.15625-2.5625l-3.4102-4.3594c-0.36719-0.46875-0.32812-1.1133 0.09375-1.5312l6.7305-6.7305c0.42188-0.42188 1.0664-0.46094 1.5312-0.09375l4.3594 3.4102c0.73828 0.57812 1.7578 0.64062 2.5625 0.15625 2.9141-1.7539 6.0625-3.0586 9.3594-3.8789 0.91016-0.22656 1.5859-0.99219 1.7031-1.9219l0.67188-5.4961c0.070312-0.58984 0.55469-1.0195 1.1484-1.0195h9.5156c0.59375 0 1.0781 0.42969 1.1484 1.0195l0.66797 5.4922c0.11328 0.92969 0.78906 1.6953 1.7031 1.9219 3.2969 0.82031 6.4453 2.125 9.3594 3.8789 0.80469 0.48437 1.8242 0.42187 2.5625-0.15625l4.3594-3.4102c0.46875-0.36719 1.1133-0.32812 1.5312 0.09375l6.7305 6.7305c0.42188 0.42188 0.46094 1.0664 0.09375 1.5352l-3.4102 4.3594c-0.57812 0.73828-0.64062 1.7578-0.15625 2.5625 1.7539 2.9141 3.0586 6.0625 3.8789 9.3594 0.22656 0.91016 0.99219 1.5859 1.9219 1.7031l5.4922 0.66797c0.58984 0.070312 1.0195 0.55469 1.0195 1.1484l0.003906 9.5156zm-41.66-29.09c-13.418 0-24.332 10.914-24.332 24.332s10.914 24.332 24.332 24.332 24.332-10.914 24.332-24.332-10.914-24.332-24.332-24.332zm0 44.133c-10.918 0-19.801-8.8828-19.801-19.801s8.8828-19.801 19.801-19.801 19.801 8.8828 19.801 19.801-8.8828 19.801-19.801 19.801z"/>
</svg>